<?xml version="1.0" encoding="UTF-8"?>
<svg id="Layer_1" data-name="Layer 1" xmlns="http://www.w3.org/2000/svg" viewBox="0 0 12.75 9.74">
  <defs>
    <style>
      .cls-1 {
        fill: #fff;
      }
    </style>
  </defs>
  <g>
    <path class="cls-1" d="M1.42,8.45v-.11h.62s.05,0,.06.02c.02.01.02.03.02.06v.78h-.67v-.58l.05-.17h-.08ZM1.59,9.1h.42v-.65h-.42v.65Z"/>
    <path class="cls-1" d="M2.29,8.45v-.11h.14s.05,0,.06.02c.02.01.02.03.02.06v.31h-.13v-.28h-.09Z"/>
    <path class="cls-1" d="M2.61,8.45v-.28h.13v.17h.45s.04,0,.06.02c.02.01.02.03.02.06v.49c0,.08-.03.16-.1.22s-.15.09-.24.09v-.12c.06,0,.11-.02.15-.06.04-.04.06-.08.06-.13v-.46h-.53Z"/>
    <path class="cls-1" d="M3.42,9.21v-.11h.47s.05,0,.06-.02.02-.03.02-.06v-.57h-.56v-.11h.6s.05,0,.06.02.02.03.02.06v.58c0,.06-.02.11-.06.15-.04.04-.09.05-.17.05h-.46Z"/>
    <path class="cls-1" d="M4.25,8.45v-.11h.14s.05,0,.06.02c.02.01.02.03.02.06v.31h-.13v-.28h-.09Z"/>
    <path class="cls-1" d="M4.54,8.45v-.11h.41c.07,0,.13.02.17.06.04.04.06.08.06.15v.66h-.13v-.68s0-.04-.02-.05-.04-.02-.06-.02h-.42Z"/>
    <path class="cls-1" d="M5.27,8.45v-.11h.66s.05,0,.06.02c.02.01.02.03.02.05v.04h-.1v.75h-.13v-.75h-.52Z"/>
    <path class="cls-1" d="M6.15,9.21v-.11h.05l-.03-.34s0-.09.04-.12c.03-.04.07-.06.11-.07l-.15-.23h.14l.27.41s.03-.01.04-.02c.01,0,.02-.02.03-.02,0,0,.02-.02.02-.03,0-.01.01-.02.02-.03,0-.01,0-.02,0-.04,0-.01,0-.03,0-.04,0-.01,0-.03,0-.04,0-.02,0-.03,0-.05v-.04h-.07v-.11h.12s.05,0,.06.02c.02.01.02.03.02.06h0s0,.07,0,.09c0,.02,0,.05,0,.07s0,.05,0,.06c0,.02,0,.03-.02.05,0,.02-.01.03-.02.05,0,.01-.02.02-.04.04-.01.01-.03.03-.05.04-.02.01-.04.02-.06.03l.23.35h-.14l-.34-.53s-.04,0-.05,0-.02.02-.03.03c0,.01,0,.02,0,.04,0,.01,0,.03,0,.04l.04.42h-.19Z"/>
    <path class="cls-1" d="M7.44,9.21l.13-.29h.12l-.08-.47h-.09v-.11h.14s.04,0,.06.02c.01.01.02.03.03.05l.14.79h-.1l-.08-.27-.12.27h-.13Z"/>
    <path class="cls-1" d="M8.01,8.45v-.11h.14s.05,0,.06.02c.02.01.02.03.02.06v.31h-.13v-.28h-.09Z"/>
    <path class="cls-1" d="M8.36,8.45v-.11h.14s.05,0,.06.02c.02.01.02.03.02.06v.31h-.13v-.28h-.09Z"/>
    <path class="cls-1" d="M8.71,8.45v-.11h.14s.05,0,.06.02c.02.01.02.03.02.06v.78h-.13v-.75h-.09Z"/>
    <path class="cls-1" d="M9.08,8.45v-.11h.14s.05,0,.06.02c.02.01.02.03.02.05v.14l.12.14h.02c.06,0,.11-.02.15-.06.04-.04.06-.08.06-.13v-.07h-.08v-.11h.12s.05,0,.06.02c.02.01.02.03.02.06v.1s0,.08-.02.11c-.02.04-.04.07-.06.09s-.05.04-.08.06-.06.03-.09.03l.25.28v.11h-.68v-.11h.52l-.44-.5v-.14h-.09Z"/>
    <path class="cls-1" d="M9.93,9.21v-.11h.15v-.65h-.11v-.11h.16s.05,0,.06.02c.02.01.02.03.02.06v.78h-.28Z"/>
    <path class="cls-1" d="M10.35,8.45v-.11h.24s.05,0,.06.02c.02.01.02.03.02.05v.04h-.09l-.05.17v.59h-.13v-.59l.05-.17h-.11Z"/>
    <path class="cls-1" d="M10.79,8.45v-.11h.14s.05,0,.06.02c.02.01.02.03.02.06v.78h-.13v-.75h-.09Z"/>
    <path class="cls-1" d="M11.1,8.45v-.11h.41c.07,0,.13.02.17.06.04.04.06.08.06.15v.66h-.13v-.68s0-.04-.02-.05-.04-.02-.06-.02h-.42Z"/>
  </g>
  <g>
    <polygon class="cls-1" points="10.44 5 5.65 5 4.71 6.72 3.58 4.79 3.16 4.08 1.42 4.08 1.42 7.6 2.13 7.6 2.13 4.79 2.75 4.79 4.42 7.57 5.05 7.57 6.07 5.7 10.02 5.7 10.87 7.25 11.04 7.57 11.73 7.57 10.44 5"/>
    <path class="cls-1" d="M5.07,2.91c0,.65-.53,1.17-1.17,1.17h-.14l.38.69c.93-.12,1.64-.91,1.64-1.86,0-1.03-.84-1.87-1.88-1.87H1.42v.71h2.47c.65,0,1.17.52,1.17,1.17Z"/>
    <path class="cls-1" d="M9.89,3.79l-1.44-2.56-.41-.71-.41.71-1.44,2.56-.4.71h4.5l-.4-.71ZM7,3.79l1.04-1.83,1.04,1.83h-2.08Z"/>
  </g>
</svg>
