<?xml version="1.0" encoding="UTF-8"?>
<svg id="Layer_1" data-name="Layer 1" xmlns="http://www.w3.org/2000/svg" viewBox="0 0 11.95 9.11">
  <defs>
    <style>
      .cls-1 {
        fill: #fff;
      }
    </style>
  </defs>
  <path class="cls-1" d="M1.65,1.77h1.77c1.04,0,1.88.84,1.88,1.87,0,.95-.72,1.74-1.64,1.86l-.38-.69h.14c.65,0,1.17-.52,1.17-1.17s-.53-1.17-1.17-1.17H.95v-.69M10.57,8.3l-.18-.32-.84-1.54h-3.96l-1.02,1.87h-.63l-1.67-2.78h-.62v2.81h-.71v-3.52h1.74l.41.71,1.13,1.93.94-1.72h4.8l1.29,2.57M7.65,1.26l-2.22,3.96,4.46.03-2.24-3.98ZM7.65,2.71l1.03,1.83h-2.05s1.02-1.83,1.02-1.83Z"/>
</svg>
